<svg xmlns="http://www.w3.org/2000/svg" xmlns:xlink="http://www.w3.org/1999/xlink" width="500" zoomAndPan="magnify" viewBox="0 0 375 374.999991" height="500" preserveAspectRatio="xMidYMid meet" version="1.0"><path fill="#ffffff" d="M 187.535156 0 C 291.105469 0 375.054688 83.964844 375.054688 187.519531 C 375.054688 291.085938 291.085938 375.035156 187.535156 375.035156 C 83.964844 375.035156 0.0195312 291.070312 0.0195312 187.519531 C 0.0195312 83.949219 83.984375 0 187.535156 0 Z M 201.835938 69.132812 C 219.46875 69.132812 233.753906 83.417969 233.753906 101.050781 C 233.753906 118.683594 219.46875 132.96875 201.835938 132.96875 C 184.207031 132.96875 169.921875 118.683594 169.921875 101.050781 C 169.921875 83.417969 184.207031 69.132812 201.835938 69.132812 Z M 147.691406 150.773438 C 147.691406 150.773438 203.828125 150.773438 214.378906 150.773438 C 224.945312 150.773438 227.925781 159.792969 225.933594 166.734375 C 223.941406 173.671875 205.132812 273.261719 211.738281 284.480469 C 218.34375 295.703125 233.628906 277.101562 238.914062 276.785156 C 244.199219 276.449219 248.164062 281.292969 245.292969 288.992188 C 242.4375 296.6875 225.582031 313.652344 190.160156 313.652344 C 154.71875 313.652344 142.621094 284.164062 148.574219 253.78125 C 154.507812 223.414062 162.542969 185.773438 162.980469 180.59375 C 163.421875 175.417969 162.71875 168.707031 154.246094 168.757812 C 151.179688 168.777344 148.203125 168.6875 145.648438 168.230469 C 133.40625 165.957031 136.613281 150.441406 147.691406 150.773438 Z M 147.691406 150.773438 " fill-opacity="1" fill-rule="evenodd"/></svg>